<?xml version="1.0" encoding="UTF-8" standalone="no"?>
<!DOCTYPE svg PUBLIC "-//W3C//DTD SVG 1.1//EN"
 "http://www.w3.org/Graphics/SVG/1.1/DTD/svg11.dtd">
<!-- Generated by graphviz version 13.1.0 (20250701.0955)
 -->
<!-- Title: G Pages: 1 -->
<svg width="1428pt" height="406pt"
 viewBox="0.00 0.00 1428.00 406.00" xmlns="http://www.w3.org/2000/svg" xmlns:xlink="http://www.w3.org/1999/xlink">
<g id="graph0" class="graph" transform="scale(1 1) rotate(0) translate(4 402.02)">
<title>G</title><style>.edge>path:hover{stroke-width:8}</style>
<polygon fill="white" stroke="none" points="-4,4 -4,-402.02 1424.45,-402.02 1424.45,4 -4,4"/>
<!-- bentoml -->
<g id="node1" class="node">
<title>bentoml</title><style>.edge>path:hover{stroke-width:8}</style>
<ellipse fill="#c04040" stroke="black" cx="284.16" cy="-294.14" rx="30.37" ry="18"/>
<text xml:space="preserve" text-anchor="middle" x="284.16" y="-290.64" font-family="Helvetica,sans-Serif" font-size="10.00" fill="#ffffff">bentoml</text>
</g>
<!-- train_pipeline_predict_eval -->
<g id="node19" class="node">
<title>train_pipeline_predict_eval</title><style>.edge>path:hover{stroke-width:8}</style>
<ellipse fill="#663d8f" stroke="black" cx="461.16" cy="-131.63" rx="53.74" ry="22.63"/>
<text xml:space="preserve" text-anchor="middle" x="461.16" y="-134.13" font-family="Helvetica,sans-Serif" font-size="10.00" fill="#ffffff">train_pipeline.</text>
<text xml:space="preserve" text-anchor="middle" x="461.16" y="-122.13" font-family="Helvetica,sans-Serif" font-size="10.00" fill="#ffffff">predict_eval</text>
</g>
<!-- bentoml&#45;&gt;train_pipeline_predict_eval -->
<g id="edge1" class="edge">
<title>bentoml&#45;&gt;train_pipeline_predict_eval</title><style>.edge>path:hover{stroke-width:8}</style>
<path fill="none" stroke="black" d="M418.16,-211.88C427.57,-196.52 437.21,-178.95 444.97,-164.27"/>
<polygon fill="#c04040" stroke="black" points="448.02,-165.98 449.56,-155.5 441.82,-162.74 448.02,-165.98"/>
<path fill="none" stroke="black" d="M305.49,-280.99C311.19,-277.83 317.38,-274.48 323.16,-271.51 367.1,-248.95 392.39,-256 418.16,-213.88"/>
</g>
<!-- category_encoders -->
<g id="node2" class="node">
<title>category_encoders</title><style>.edge>path:hover{stroke-width:8}</style>
<ellipse fill="#c0a040" stroke="black" cx="628.16" cy="-294.14" rx="59.23" ry="18"/>
<text xml:space="preserve" text-anchor="middle" x="628.16" y="-290.64" font-family="Helvetica,sans-Serif" font-size="10.00" fill="#000000">category_encoders</text>
</g>
<!-- train_pipeline_preprocessing -->
<g id="node20" class="node">
<title>train_pipeline_preprocessing</title><style>.edge>path:hover{stroke-width:8}</style>
<ellipse fill="#663d8f" stroke="black" cx="587.16" cy="-131.63" rx="54.27" ry="22.63"/>
<text xml:space="preserve" text-anchor="middle" x="587.16" y="-134.13" font-family="Helvetica,sans-Serif" font-size="10.00" fill="#ffffff">train_pipeline.</text>
<text xml:space="preserve" text-anchor="middle" x="587.16" y="-122.13" font-family="Helvetica,sans-Serif" font-size="10.00" fill="#ffffff">preprocessing</text>
</g>
<!-- category_encoders&#45;&gt;train_pipeline_preprocessing -->
<g id="edge2" class="edge">
<title>category_encoders&#45;&gt;train_pipeline_preprocessing</title><style>.edge>path:hover{stroke-width:8}</style>
<path fill="none" stroke="black" d="M665.56,-279.79C717.59,-260.68 804.7,-226.42 797.16,-213.88"/>
<path fill="none" stroke="black" d="M797.16,-211.88C767.56,-162.61 702.35,-143.81 652.39,-136.72"/>
<polygon fill="#c0a040" stroke="black" points="652.88,-133.25 642.52,-135.46 652,-140.2 652.88,-133.25"/>
</g>
<!-- mlflow -->
<g id="node3" class="node">
<title>mlflow</title><style>.edge>path:hover{stroke-width:8}</style>
<ellipse fill="#80c040" stroke="black" cx="359.16" cy="-294.14" rx="27" ry="18"/>
<text xml:space="preserve" text-anchor="middle" x="359.16" y="-290.64" font-family="Helvetica,sans-Serif" font-size="10.00" fill="#000000">mlflow</text>
</g>
<!-- mlflow&#45;&gt;train_pipeline_predict_eval -->
<g id="edge3" class="edge">
<title>mlflow&#45;&gt;train_pipeline_predict_eval</title><style>.edge>path:hover{stroke-width:8}</style>
<path fill="none" stroke="black" d="M371.79,-277.94C384.37,-262.4 403.84,-237.29 418.16,-213.88"/>
</g>
<!-- models_py -->
<g id="node4" class="node">
<title>models_py</title><style>.edge>path:hover{stroke-width:8}</style>
<ellipse fill="#4b8b5b" stroke="black" cx="461.16" cy="-18" rx="36.68" ry="18"/>
<text xml:space="preserve" text-anchor="middle" x="461.16" y="-14.5" font-family="Helvetica,sans-Serif" font-size="10.00" fill="#ffffff">models.py</text>
</g>
<!-- pandas -->
<g id="node5" class="node">
<title>pandas</title><style>.edge>path:hover{stroke-width:8}</style>
<ellipse fill="#40bfc0" stroke="black" cx="169.16" cy="-294.14" rx="28.56" ry="18"/>
<text xml:space="preserve" text-anchor="middle" x="169.16" y="-290.64" font-family="Helvetica,sans-Serif" font-size="10.00" fill="#000000">pandas</text>
</g>
<!-- train_pipeline_data_loader -->
<g id="node18" class="node">
<title>train_pipeline_data_loader</title><style>.edge>path:hover{stroke-width:8}</style>
<ellipse fill="#663d8f" stroke="black" cx="336.16" cy="-131.63" rx="53.74" ry="22.63"/>
<text xml:space="preserve" text-anchor="middle" x="336.16" y="-134.13" font-family="Helvetica,sans-Serif" font-size="10.00" fill="#ffffff">train_pipeline.</text>
<text xml:space="preserve" text-anchor="middle" x="336.16" y="-122.13" font-family="Helvetica,sans-Serif" font-size="10.00" fill="#ffffff">data_loader</text>
</g>
<!-- pandas&#45;&gt;train_pipeline_data_loader -->
<g id="edge4" class="edge">
<title>pandas&#45;&gt;train_pipeline_data_loader</title><style>.edge>path:hover{stroke-width:8}</style>
<path fill="none" stroke="black" d="M183.73,-278.22C197.32,-263.29 216.85,-238.99 226.16,-213.88"/>
</g>
<!-- sklearn -->
<g id="node6" class="node">
<title>sklearn</title><style>.edge>path:hover{stroke-width:8}</style>
<ellipse fill="#0c46f3" stroke="black" cx="522.16" cy="-294.14" rx="28.56" ry="18"/>
<text xml:space="preserve" text-anchor="middle" x="522.16" y="-290.64" font-family="Helvetica,sans-Serif" font-size="10.00" fill="#ffffff">sklearn</text>
</g>
<!-- sklearn&#45;&gt;train_pipeline_data_loader -->
<g id="edge5" class="edge">
<title>sklearn&#45;&gt;train_pipeline_data_loader</title><style>.edge>path:hover{stroke-width:8}</style>
<path fill="none" stroke="black" d="M503.23,-280.31C497.61,-277 491.32,-273.75 485.16,-271.51 395.34,-238.87 364.47,-263.73 273.16,-235.51 251.2,-228.72 218.16,-235.44 226.16,-213.88"/>
</g>
<!-- sklearn&#45;&gt;train_pipeline_predict_eval -->
<g id="edge6" class="edge">
<title>sklearn&#45;&gt;train_pipeline_predict_eval</title><style>.edge>path:hover{stroke-width:8}</style>
<path fill="none" stroke="black" d="M565.16,-211.88C565.45,-182.92 539.62,-163.15 513.64,-150.59"/>
<polygon fill="#0c46f3" stroke="black" points="515.28,-147.49 504.73,-146.59 512.42,-153.88 515.28,-147.49"/>
<path fill="none" stroke="black" d="M536.14,-278.06C548.6,-263.01 564.92,-238.61 565.16,-213.88"/>
</g>
<!-- sklearn&#45;&gt;train_pipeline_preprocessing -->
<g id="edge7" class="edge">
<title>sklearn&#45;&gt;train_pipeline_preprocessing</title><style>.edge>path:hover{stroke-width:8}</style>
<path fill="none" stroke="black" d="M565.16,-211.88C565.32,-196.11 569.44,-179.19 574.07,-165.05"/>
<polygon fill="#0c46f3" stroke="black" points="577.3,-166.41 577.32,-155.81 570.7,-164.08 577.3,-166.41"/>
</g>
<!-- train_pipeline_training -->
<g id="node21" class="node">
<title>train_pipeline_training</title><style>.edge>path:hover{stroke-width:8}</style>
<ellipse fill="#663d8f" stroke="black" cx="854.16" cy="-131.63" rx="53.74" ry="22.63"/>
<text xml:space="preserve" text-anchor="middle" x="854.16" y="-134.13" font-family="Helvetica,sans-Serif" font-size="10.00" fill="#ffffff">train_pipeline.</text>
<text xml:space="preserve" text-anchor="middle" x="854.16" y="-122.13" font-family="Helvetica,sans-Serif" font-size="10.00" fill="#ffffff">training</text>
</g>
<!-- sklearn&#45;&gt;train_pipeline_training -->
<g id="edge8" class="edge">
<title>sklearn&#45;&gt;train_pipeline_training</title><style>.edge>path:hover{stroke-width:8}</style>
<path fill="none" stroke="black" d="M541.22,-280.44C547.09,-277.05 553.7,-273.72 560.16,-271.51 666.78,-235 722.04,-304.49 811.16,-235.51 832.9,-218.68 843.76,-188.87 849.11,-165.65"/>
<polygon fill="#0c46f3" stroke="black" points="852.51,-166.52 851.08,-156.02 845.65,-165.12 852.51,-166.52"/>
</g>
<!-- sklearn_compose -->
<g id="node7" class="node">
<title>sklearn_compose</title><style>.edge>path:hover{stroke-width:8}</style>
<ellipse fill="#536cb6" stroke="black" cx="745.16" cy="-294.14" rx="39.42" ry="22.63"/>
<text xml:space="preserve" text-anchor="middle" x="745.16" y="-296.64" font-family="Helvetica,sans-Serif" font-size="10.00" fill="#ffffff">sklearn.</text>
<text xml:space="preserve" text-anchor="middle" x="745.16" y="-284.64" font-family="Helvetica,sans-Serif" font-size="10.00" fill="#ffffff">compose</text>
</g>
<!-- sklearn_compose&#45;&gt;train_pipeline_preprocessing -->
<g id="edge9" class="edge">
<title>sklearn_compose&#45;&gt;train_pipeline_preprocessing</title><style>.edge>path:hover{stroke-width:8}</style>
<path fill="none" stroke="black" d="M769.2,-276.07C788.47,-260.19 810.3,-235.75 797.16,-213.88"/>
</g>
<!-- sklearn_ensemble -->
<g id="node8" class="node">
<title>sklearn_ensemble</title><style>.edge>path:hover{stroke-width:8}</style>
<ellipse fill="#536cb6" stroke="black" cx="1163.16" cy="-294.14" rx="41.01" ry="22.63"/>
<text xml:space="preserve" text-anchor="middle" x="1163.16" y="-296.64" font-family="Helvetica,sans-Serif" font-size="10.00" fill="#ffffff">sklearn.</text>
<text xml:space="preserve" text-anchor="middle" x="1163.16" y="-284.64" font-family="Helvetica,sans-Serif" font-size="10.00" fill="#ffffff">ensemble</text>
</g>
<!-- sklearn_ensemble&#45;&gt;train_pipeline_training -->
<g id="edge10" class="edge">
<title>sklearn_ensemble&#45;&gt;train_pipeline_training</title><style>.edge>path:hover{stroke-width:8}</style>
<path fill="none" stroke="black" d="M1188.36,-275.98C1209.69,-259.38 1234.26,-233.87 1217.16,-213.88"/>
</g>
<!-- sklearn_impute -->
<g id="node9" class="node">
<title>sklearn_impute</title><style>.edge>path:hover{stroke-width:8}</style>
<ellipse fill="#536cb6" stroke="black" cx="850.16" cy="-294.14" rx="47.96" ry="18"/>
<text xml:space="preserve" text-anchor="middle" x="850.16" y="-290.64" font-family="Helvetica,sans-Serif" font-size="10.00" fill="#ffffff">sklearn.impute</text>
</g>
<!-- sklearn_impute&#45;&gt;train_pipeline_preprocessing -->
<g id="edge11" class="edge">
<title>sklearn_impute&#45;&gt;train_pipeline_preprocessing</title><style>.edge>path:hover{stroke-width:8}</style>
<path fill="none" stroke="black" d="M838.31,-276.44C827.24,-260.6 810.47,-236.02 797.16,-213.88"/>
</g>
<!-- sklearn_linear_model -->
<g id="node10" class="node">
<title>sklearn_linear_model</title><style>.edge>path:hover{stroke-width:8}</style>
<ellipse fill="#536cb6" stroke="black" cx="1272.16" cy="-294.14" rx="50.03" ry="22.63"/>
<text xml:space="preserve" text-anchor="middle" x="1272.16" y="-296.64" font-family="Helvetica,sans-Serif" font-size="10.00" fill="#ffffff">sklearn.</text>
<text xml:space="preserve" text-anchor="middle" x="1272.16" y="-284.64" font-family="Helvetica,sans-Serif" font-size="10.00" fill="#ffffff">linear_model</text>
</g>
<!-- sklearn_linear_model&#45;&gt;train_pipeline_training -->
<g id="edge12" class="edge">
<title>sklearn_linear_model&#45;&gt;train_pipeline_training</title><style>.edge>path:hover{stroke-width:8}</style>
<path fill="none" stroke="black" d="M1259.23,-272.11C1248.71,-255.63 1233.06,-232.46 1217.16,-213.88"/>
</g>
<!-- sklearn_metrics -->
<g id="node11" class="node">
<title>sklearn_metrics</title><style>.edge>path:hover{stroke-width:8}</style>
<ellipse fill="#3d5cb8" stroke="black" cx="440.16" cy="-294.14" rx="35.71" ry="22.63"/>
<text xml:space="preserve" text-anchor="middle" x="440.16" y="-296.64" font-family="Helvetica,sans-Serif" font-size="10.00" fill="#ffffff">sklearn.</text>
<text xml:space="preserve" text-anchor="middle" x="440.16" y="-284.64" font-family="Helvetica,sans-Serif" font-size="10.00" fill="#ffffff">metrics</text>
</g>
<!-- sklearn_metrics&#45;&gt;train_pipeline_predict_eval -->
<g id="edge13" class="edge">
<title>sklearn_metrics&#45;&gt;train_pipeline_predict_eval</title><style>.edge>path:hover{stroke-width:8}</style>
<path fill="none" stroke="black" d="M426.22,-273.02C416.46,-256.22 406.98,-232.15 418.16,-213.88"/>
</g>
<!-- sklearn_model_selection -->
<g id="node12" class="node">
<title>sklearn_model_selection</title><style>.edge>path:hover{stroke-width:8}</style>
<ellipse fill="#536cb6" stroke="black" cx="61.16" cy="-294.14" rx="61.16" ry="22.63"/>
<text xml:space="preserve" text-anchor="middle" x="61.16" y="-296.64" font-family="Helvetica,sans-Serif" font-size="10.00" fill="#ffffff">sklearn.</text>
<text xml:space="preserve" text-anchor="middle" x="61.16" y="-284.64" font-family="Helvetica,sans-Serif" font-size="10.00" fill="#ffffff">model_selection</text>
</g>
<!-- sklearn_model_selection&#45;&gt;train_pipeline_data_loader -->
<g id="edge14" class="edge">
<title>sklearn_model_selection&#45;&gt;train_pipeline_data_loader</title><style>.edge>path:hover{stroke-width:8}</style>
<path fill="none" stroke="black" d="M107.1,-278.97C152.72,-263.66 217.15,-238.16 226.16,-213.88"/>
<path fill="none" stroke="black" d="M226.16,-211.88C236.27,-184.66 262.18,-165.27 286.32,-152.48"/>
<polygon fill="#536cb6" stroke="black" points="287.76,-155.67 295.15,-148.08 284.64,-149.41 287.76,-155.67"/>
</g>
<!-- sklearn_pipeline -->
<g id="node13" class="node">
<title>sklearn_pipeline</title><style>.edge>path:hover{stroke-width:8}</style>
<ellipse fill="#405fc0" stroke="black" cx="990.16" cy="-294.14" rx="35.71" ry="22.63"/>
<text xml:space="preserve" text-anchor="middle" x="990.16" y="-296.64" font-family="Helvetica,sans-Serif" font-size="10.00" fill="#ffffff">sklearn.</text>
<text xml:space="preserve" text-anchor="middle" x="990.16" y="-284.64" font-family="Helvetica,sans-Serif" font-size="10.00" fill="#ffffff">pipeline</text>
</g>
<!-- sklearn_pipeline&#45;&gt;train_pipeline_preprocessing -->
<g id="edge15" class="edge">
<title>sklearn_pipeline&#45;&gt;train_pipeline_preprocessing</title><style>.edge>path:hover{stroke-width:8}</style>
<path fill="none" stroke="black" d="M873.16,-211.88C803.87,-169.56 711.51,-149.31 650.74,-140"/>
<polygon fill="#405fc0" stroke="black" points="651.3,-136.54 640.89,-138.55 650.28,-143.47 651.3,-136.54"/>
<path fill="none" stroke="black" d="M967.28,-276.69C943.99,-260.19 906.67,-234.34 873.16,-213.88"/>
</g>
<!-- sklearn_pipeline&#45;&gt;train_pipeline_training -->
<g id="edge16" class="edge">
<title>sklearn_pipeline&#45;&gt;train_pipeline_training</title><style>.edge>path:hover{stroke-width:8}</style>
<path fill="none" stroke="black" d="M873.16,-211.88C857.96,-202.59 853.11,-183.26 852.12,-166.02"/>
<polygon fill="#405fc0" stroke="black" points="855.62,-166.03 851.98,-156.08 848.62,-166.12 855.62,-166.03"/>
</g>
<!-- sklearn_preprocessing -->
<g id="node14" class="node">
<title>sklearn_preprocessing</title><style>.edge>path:hover{stroke-width:8}</style>
<ellipse fill="#3b60ce" stroke="black" cx="926.16" cy="-375.39" rx="54.27" ry="22.63"/>
<text xml:space="preserve" text-anchor="middle" x="926.16" y="-377.89" font-family="Helvetica,sans-Serif" font-size="10.00" fill="#ffffff">sklearn.</text>
<text xml:space="preserve" text-anchor="middle" x="926.16" y="-365.89" font-family="Helvetica,sans-Serif" font-size="10.00" fill="#ffffff">preprocessing</text>
</g>
<!-- sklearn_preprocessing&#45;&gt;sklearn_pipeline -->
<g id="edge17" class="edge">
<title>sklearn_preprocessing&#45;&gt;sklearn_pipeline</title><style>.edge>path:hover{stroke-width:8}</style>
<path fill="none" stroke="black" d="M942.98,-353.57C950.41,-344.37 959.26,-333.41 967.28,-323.48"/>
<polygon fill="#3b60ce" stroke="black" points="969.83,-325.89 973.39,-315.91 964.39,-321.49 969.83,-325.89"/>
</g>
<!-- sklearn_preprocessing&#45;&gt;train_pipeline_data_loader -->
<g id="edge18" class="edge">
<title>sklearn_preprocessing&#45;&gt;train_pipeline_data_loader</title><style>.edge>path:hover{stroke-width:8}</style>
<path fill="none" stroke="black" d="M871.75,-373.51C718.48,-370.53 291.24,-358.52 245.16,-316.76 210.71,-285.54 209.99,-257.48 226.16,-213.88"/>
</g>
<!-- sklearn_preprocessing&#45;&gt;train_pipeline_preprocessing -->
<g id="edge19" class="edge">
<title>sklearn_preprocessing&#45;&gt;train_pipeline_preprocessing</title><style>.edge>path:hover{stroke-width:8}</style>
<path fill="none" stroke="black" d="M927.42,-352.54C927.6,-330.1 924.63,-295.19 907.16,-271.51 874.41,-227.09 825.59,-261.19 797.16,-213.88"/>
</g>
<!-- sklearn_tree -->
<g id="node15" class="node">
<title>sklearn_tree</title><style>.edge>path:hover{stroke-width:8}</style>
<ellipse fill="#536cb6" stroke="black" cx="1380.16" cy="-294.14" rx="40.29" ry="18"/>
<text xml:space="preserve" text-anchor="middle" x="1380.16" y="-290.64" font-family="Helvetica,sans-Serif" font-size="10.00" fill="#ffffff">sklearn.tree</text>
</g>
<!-- sklearn_tree&#45;&gt;train_pipeline_training -->
<g id="edge20" class="edge">
<title>sklearn_tree&#45;&gt;train_pipeline_training</title><style>.edge>path:hover{stroke-width:8}</style>
<path fill="none" stroke="black" d="M1352.79,-280.52C1307.63,-259.61 1221.97,-219.5 1217.16,-213.88"/>
</g>
<!-- train_pipeline -->
<g id="node16" class="node">
<title>train_pipeline</title><style>.edge>path:hover{stroke-width:8}</style>
<ellipse fill="#853bce" stroke="black" cx="220.16" cy="-131.63" rx="43.9" ry="18"/>
<text xml:space="preserve" text-anchor="middle" x="220.16" y="-128.13" font-family="Helvetica,sans-Serif" font-size="10.00" fill="#ffffff">train_pipeline</text>
</g>
<!-- train_pipeline&#45;&gt;models_py -->
<g id="edge21" class="edge">
<title>train_pipeline&#45;&gt;models_py</title><style>.edge>path:hover{stroke-width:8}</style>
<path fill="none" stroke="black" d="M248.95,-117.67C256.7,-114.52 265.16,-111.37 273.16,-109 313.95,-96.91 471.23,-114.33 461.16,-73"/>
<path fill="none" stroke="black" d="M461.16,-72C459.29,-64.28 458.67,-55.74 458.69,-47.81"/>
<polygon fill="#853bce" stroke="black" points="462.18,-48.07 459.05,-37.94 455.19,-47.81 462.18,-48.07"/>
</g>
<!-- train_pipeline_config -->
<g id="node17" class="node">
<title>train_pipeline_config</title><style>.edge>path:hover{stroke-width:8}</style>
<ellipse fill="#8547c2" stroke="black" cx="336.16" cy="-212.88" rx="53.74" ry="22.63"/>
<text xml:space="preserve" text-anchor="middle" x="336.16" y="-215.38" font-family="Helvetica,sans-Serif" font-size="10.00" fill="#ffffff">train_pipeline.</text>
<text xml:space="preserve" text-anchor="middle" x="336.16" y="-203.38" font-family="Helvetica,sans-Serif" font-size="10.00" fill="#ffffff">config</text>
</g>
<!-- train_pipeline_config&#45;&gt;train_pipeline_data_loader -->
<g id="edge22" class="edge">
<title>train_pipeline_config&#45;&gt;train_pipeline_data_loader</title><style>.edge>path:hover{stroke-width:8}</style>
<path fill="none" stroke="black" d="M336.16,-189.81C336.16,-182.42 336.16,-174.01 336.16,-165.97"/>
<polygon fill="#8547c2" stroke="black" points="339.66,-166.1 336.16,-156.1 332.66,-166.1 339.66,-166.1"/>
</g>
<!-- train_pipeline_config&#45;&gt;train_pipeline_predict_eval -->
<g id="edge23" class="edge">
<title>train_pipeline_config&#45;&gt;train_pipeline_predict_eval</title><style>.edge>path:hover{stroke-width:8}</style>
<path fill="none" stroke="black" d="M365.16,-193.5C382.27,-182.65 404.15,-168.78 422.7,-157.02"/>
<polygon fill="#8547c2" stroke="black" points="424.48,-160.03 431.05,-151.72 420.73,-154.12 424.48,-160.03"/>
</g>
<!-- train_pipeline_data_loader&#45;&gt;models_py -->
<g id="edge24" class="edge">
<title>train_pipeline_data_loader&#45;&gt;models_py</title><style>.edge>path:hover{stroke-width:8}</style>
<path fill="none" stroke="black" d="M376.67,-116.31C414.03,-102.48 463.43,-82.29 461.16,-73"/>
</g>
<!-- train_pipeline_predict_eval&#45;&gt;models_py -->
<g id="edge25" class="edge">
<title>train_pipeline_predict_eval&#45;&gt;models_py</title><style>.edge>path:hover{stroke-width:8}</style>
<path fill="none" stroke="black" d="M463.58,-108.72C464.18,-97.83 463.98,-84.57 461.16,-73"/>
</g>
<!-- train_pipeline_preprocessing&#45;&gt;models_py -->
<g id="edge26" class="edge">
<title>train_pipeline_preprocessing&#45;&gt;models_py</title><style>.edge>path:hover{stroke-width:8}</style>
<path fill="none" stroke="black" d="M547.24,-115.95C511.18,-102.14 463.42,-82.26 461.16,-73"/>
</g>
<!-- train_pipeline_training&#45;&gt;models_py -->
<g id="edge27" class="edge">
<title>train_pipeline_training&#45;&gt;models_py</title><style>.edge>path:hover{stroke-width:8}</style>
<path fill="none" stroke="black" d="M802.21,-125.53C696.33,-114.79 465.19,-89.52 461.16,-73"/>
</g>
<!-- xgboost -->
<g id="node22" class="node">
<title>xgboost</title><style>.edge>path:hover{stroke-width:8}</style>
<ellipse fill="#c0409f" stroke="black" cx="1074.16" cy="-294.14" rx="30.37" ry="18"/>
<text xml:space="preserve" text-anchor="middle" x="1074.16" y="-290.64" font-family="Helvetica,sans-Serif" font-size="10.00" fill="#ffffff">xgboost</text>
</g>
<!-- xgboost&#45;&gt;train_pipeline_training -->
<g id="edge28" class="edge">
<title>xgboost&#45;&gt;train_pipeline_training</title><style>.edge>path:hover{stroke-width:8}</style>
<path fill="none" stroke="black" d="M1217.16,-211.88C1179.03,-167.29 1011.8,-146.05 918.19,-137.5"/>
<polygon fill="#c0409f" stroke="black" points="918.66,-134.02 908.39,-136.62 918.04,-141 918.66,-134.02"/>
<path fill="none" stroke="black" d="M1095.88,-281.1C1135.89,-258.93 1217.16,-213.88 1217.16,-213.88"/>
</g>
</g>
</svg>
